# xmcd
#
# Track frame offsets: 
#        150
#        15600
#        20903
#        39969
#        58696
#        81184
#        94361
#        99381
#        115366
#        134395
#        152029
#        166935
#        183024
#        199695
#        213693
#        226473
#        236973
#        245973
#        267181
#        267632
#
# Disc length: 3813 seconds
#
# Revision: 2
# Processed by: cddbd v1.5.2PL0 Copyright (c) Steve Scherf et al.
# Submitted via: ExactAudioCopy v0.95b3
#
DISCID=230ee314
DTITLE=Figurine - Transportation and Communication =Love
DYEAR=1999
DGENRE=Electronic
TTITLE0=I Wait for You (By the Telephone)
TTITLE1=F>I>G>U>R>I>N>E
TTITLE2=New Mate
TTITLE3=An Electronic Address
TTITLE4=S.O.S.
TTITLE5=Batteries (Can't Help Me Now)
TTITLE6=Robots
TTITLE7=My First UFO
TTITLE8=The European Beauty
TTITLE9=Tired Eyes
TTITLE10=Digits
TTITLE11=Eurodiscotesque
TTITLE12=New Millenium Song
TTITLE13=Internation Space Station
TTITLE14=Secret Track
TTITLE15=You (Recorded Live In Berlin)
TTITLE16=S...p...a...c...e
TTITLE17=Zero Degrees
TTITLE18=(Turning The Single Over)
TTITLE19=Our Song
EXTD=YEAR: 1999
EXTT0=
EXTT1=
EXTT2=
EXTT3=
EXTT4=
EXTT5=
EXTT6=
EXTT7=
EXTT8=
EXTT9=
EXTT10=
EXTT11=
EXTT12=
EXTT13=
EXTT14=
EXTT15=
EXTT16=
EXTT17=
EXTT18=
EXTT19=
PLAYORDER=
